<svg width="24" height="24" viewBox="0 0 24 24" fill="none" xmlns="http://www.w3.org/2000/svg">
<path d="M12.8292 13.5059C13.2017 13.575 13.5893 13.4776 13.9067 13.2352C14.224 12.9928 14.4452 12.6254 14.5214 12.2136C14.6802 11.3566 14.4706 10.9195 14.3047 10.2465C13.9489 8.80408 14.6452 7.70558 16.1186 6.72856C16.112 8.33314 16.6787 9.97969 17.6184 11.1815C18.5581 12.3833 18.9014 13.6673 18.6713 14.9093C18.5655 15.4802 18.3591 16.0266 18.0637 16.5174C17.7684 17.0082 17.3899 17.4338 16.9499 17.7698C16.5099 18.1058 16.017 18.3457 15.4994 18.4757C14.9817 18.6058 14.4494 18.6235 13.9329 18.5278C13.4164 18.4322 12.9258 18.225 12.4891 17.9181C12.0524 17.6113 11.6781 17.2107 11.3877 16.7394C11.0972 16.2681 10.8963 15.7352 10.7963 15.1712C10.6964 14.6072 10.6994 14.023 10.8051 13.4522C10.9377 12.7361 11.3123 12.0726 11.7121 11.6932C11.6358 12.105 11.7107 12.5273 11.9202 12.8672C12.1296 13.2072 12.4566 13.4369 12.8292 13.5059Z" fill="url(#paint0_linear_157_559)" fill-opacity="0.6"/>
<path d="M9.4744 12.558C9.26755 12.6732 9.01882 12.6931 8.78293 12.6134C8.54703 12.5338 8.34329 12.3611 8.21653 12.1333C7.95269 11.6593 7.99014 11.3595 7.95494 10.9292C7.87966 10.0069 7.24977 9.49772 6.18391 9.21541C6.50588 10.161 6.49677 11.2458 6.17873 12.1427C5.86069 13.0396 5.91197 13.8659 6.29434 14.5529C6.47009 14.8687 6.7006 15.1499 6.97271 15.3806C7.24482 15.6112 7.55321 15.7868 7.88026 15.8972C8.20731 16.0076 8.54663 16.0507 8.87883 16.0241C9.21103 15.9975 9.52962 15.9016 9.81639 15.742C10.1032 15.5824 10.3525 15.3622 10.5502 15.0939C10.7479 14.8256 10.8901 14.5145 10.9686 14.1783C11.0471 13.8422 11.0604 13.4876 11.0078 13.1348C10.9552 12.782 10.8376 12.4378 10.6619 12.1221C10.4414 11.726 10.0882 11.4093 9.77636 11.2652C9.90312 11.4929 9.94252 11.7571 9.8859 11.9996C9.82927 12.242 9.68125 12.4429 9.4744 12.558Z" fill="url(#paint1_linear_157_559)" fill-opacity="0.6"/>
<path d="M6.24145 6.42215C6.38445 6.38383 6.53868 6.41083 6.67021 6.49722C6.80173 6.58361 6.89978 6.7223 6.94278 6.88278C7.03228 7.2168 6.96466 7.39577 6.92167 7.66671C6.82945 8.24736 7.13629 8.6609 7.74216 9.0034C7.68786 8.36939 7.85572 7.70179 8.18331 7.19894C8.51089 6.69609 8.60334 6.17841 8.47363 5.69432C8.41401 5.47182 8.31593 5.26197 8.18498 5.07673C8.05402 4.8915 7.89277 4.73452 7.71042 4.61475C7.52807 4.49498 7.3282 4.41477 7.12221 4.37871C6.91623 4.34264 6.70816 4.35142 6.5099 4.40454C6.31164 4.45767 6.12706 4.5541 5.96671 4.68832C5.80635 4.82255 5.67336 4.99195 5.57533 5.18684C5.47729 5.38174 5.41613 5.59832 5.39534 5.82421C5.37455 6.05011 5.39453 6.28089 5.45415 6.50339C5.52893 6.78247 5.69632 7.03362 5.8644 7.17173C5.8214 7.01125 5.83696 6.84211 5.90767 6.70154C5.97838 6.56096 6.09845 6.46046 6.24145 6.42215Z" fill="url(#paint2_linear_157_559)" fill-opacity="0.6"/>
<path d="M5.88261 7.87525C5.84069 7.88648 5.79548 7.87857 5.75692 7.85325C5.71837 7.82792 5.68962 7.78727 5.67702 7.74022C5.65078 7.64231 5.67061 7.58984 5.68321 7.51042C5.71024 7.34021 5.6203 7.21898 5.44269 7.11858C5.45861 7.30444 5.4094 7.50014 5.31337 7.64754C5.21734 7.79495 5.19024 7.9467 5.22827 8.08861C5.24574 8.15383 5.2745 8.21535 5.31288 8.26965C5.35127 8.32395 5.39854 8.36996 5.45199 8.40507C5.50545 8.44018 5.56404 8.46369 5.62442 8.47427C5.6848 8.48484 5.74579 8.48226 5.80391 8.46669C5.86203 8.45112 5.91614 8.42285 5.96315 8.3835C6.01015 8.34416 6.04914 8.2945 6.07787 8.23737C6.10661 8.18024 6.12454 8.11675 6.13064 8.05053C6.13673 7.98431 6.13087 7.91666 6.1134 7.85144C6.09147 7.76963 6.04241 7.69601 5.99314 7.65552C6.00574 7.70256 6.00118 7.75214 5.98045 7.79335C5.95972 7.83456 5.92453 7.86402 5.88261 7.87525Z" fill="url(#paint3_linear_157_559)" fill-opacity="0.6"/>
<path d="M8.5 14.5C9.16304 14.5 9.79893 14.2366 10.2678 13.7678C10.7366 13.2989 11 12.663 11 12C11 10.62 10.5 10 10 9C8.928 6.857 9.776 4.946 12 3C12.5 5.5 14 7.9 16 9.5C18 11.1 19 13 19 15C19 15.9193 18.8189 16.8295 18.4672 17.6788C18.1154 18.5281 17.5998 19.2997 16.9497 19.9497C16.2997 20.5998 15.5281 21.1154 14.6788 21.4672C13.8295 21.8189 12.9193 22 12 22C11.0807 22 10.1705 21.8189 9.32122 21.4672C8.47194 21.1154 7.70026 20.5998 7.05025 19.9497C6.40024 19.2997 5.88463 18.5281 5.53284 17.6788C5.18106 16.8295 5 15.9193 5 15C5 13.847 5.433 12.706 6 12C6 12.663 6.26339 13.2989 6.73223 13.7678C7.20107 14.2366 7.83696 14.5 8.5 14.5Z" fill="url(#paint4_linear_157_559)"/>
<defs>
<linearGradient id="paint0_linear_157_559" x1="16.1186" y1="6.72856" x2="13.9329" y2="18.5278" gradientUnits="userSpaceOnUse">
<stop stop-color="#FF9B24"/>
<stop offset="1" stop-color="#FA0000" stop-opacity="0.89"/>
</linearGradient>
<linearGradient id="paint1_linear_157_559" x1="6.18391" y1="9.21541" x2="9.81639" y2="15.742" gradientUnits="userSpaceOnUse">
<stop stop-color="#FF9B24"/>
<stop offset="1" stop-color="#FA0000" stop-opacity="0.89"/>
</linearGradient>
<linearGradient id="paint2_linear_157_559" x1="7.74216" y1="9.0034" x2="6.5099" y2="4.40454" gradientUnits="userSpaceOnUse">
<stop stop-color="#FF9B24"/>
<stop offset="1" stop-color="#FA0000" stop-opacity="0.89"/>
</linearGradient>
<linearGradient id="paint3_linear_157_559" x1="5.44269" y1="7.11858" x2="5.80391" y2="8.46669" gradientUnits="userSpaceOnUse">
<stop stop-color="#FF9B24"/>
<stop offset="1" stop-color="#FA0000" stop-opacity="0.89"/>
</linearGradient>
<linearGradient id="paint4_linear_157_559" x1="12" y1="3" x2="12" y2="22" gradientUnits="userSpaceOnUse">
<stop stop-color="#FF9B24"/>
<stop offset="1" stop-color="#FA0000" stop-opacity="0.89"/>
</linearGradient>
</defs>
</svg>
