<svg width="150" height="48" viewBox="0 0 150 48" fill="none" xmlns="http://www.w3.org/2000/svg">
<path d="M3.69795 24C3.51462 24 3.35628 23.9417 3.22295 23.825C3.08962 23.6917 3.02295 23.525 3.02295 23.325V7.175C3.02295 6.99167 3.08962 6.83333 3.22295 6.7C3.35628 6.56667 3.51462 6.5 3.69795 6.5H18.898C19.0813 6.5 19.2396 6.56667 19.373 6.7C19.5063 6.83333 19.5729 6.99167 19.5729 7.175V23.325C19.5729 23.5083 19.5063 23.6667 19.373 23.8C19.2396 23.9333 19.0813 24 18.898 24H13.9979C13.8146 24 13.6563 23.9333 13.5229 23.8C13.3896 23.6667 13.3229 23.5083 13.3229 23.325V12H9.27295V23.325C9.27295 23.5083 9.20628 23.6667 9.07295 23.8C8.93962 23.9333 8.78128 24 8.59795 24H3.69795ZM21.5095 24C21.3595 24 21.2261 23.95 21.1095 23.85C21.0095 23.7333 20.9595 23.6 20.9595 23.45C20.9595 23.3833 20.9678 23.325 20.9845 23.275L26.5595 7.325C26.6095 7.14167 26.7261 6.95833 26.9095 6.775C27.0928 6.59167 27.3511 6.5 27.6845 6.5H33.1095C33.4428 6.5 33.7011 6.59167 33.8845 6.775C34.0678 6.95833 34.1845 7.14167 34.2345 7.325L39.8095 23.275C39.8261 23.325 39.8345 23.3833 39.8345 23.45C39.8345 23.6 39.7761 23.7333 39.6595 23.85C39.5595 23.95 39.4345 24 39.2845 24H34.6595C34.3428 24 34.1095 23.9333 33.9595 23.8C33.8261 23.65 33.7345 23.5083 33.6845 23.375L33.0845 21.725H27.7095L27.1095 23.375C27.0595 23.5083 26.9678 23.65 26.8345 23.8C26.7011 23.9333 26.4678 24 26.1345 24H21.5095ZM28.9845 16.85H31.8095L30.3845 12.2L28.9845 16.85ZM49.1315 24.25C47.5315 24.25 46.1149 24.0167 44.8815 23.55C43.6482 23.0833 42.6649 22.35 41.9315 21.35C41.2149 20.35 40.8232 19.0583 40.7565 17.475C40.7399 16.7917 40.7315 16.0583 40.7315 15.275C40.7315 14.4917 40.7399 13.7417 40.7565 13.025C40.8232 11.475 41.2232 10.2 41.9565 9.2C42.7065 8.2 43.6982 7.45833 44.9315 6.975C46.1815 6.49167 47.5815 6.25 49.1315 6.25C50.1982 6.25 51.2232 6.375 52.2065 6.625C53.2065 6.85833 54.1065 7.23333 54.9065 7.75C55.7065 8.26667 56.3399 8.93333 56.8065 9.75C57.2899 10.55 57.5399 11.5167 57.5565 12.65C57.5565 12.8 57.4982 12.9333 57.3815 13.05C57.2815 13.15 57.1565 13.2 57.0065 13.2H51.9065C51.6399 13.2 51.4399 13.15 51.3065 13.05C51.1899 12.9333 51.0815 12.7417 50.9815 12.475C50.7982 11.9417 50.5482 11.5833 50.2315 11.4C49.9149 11.2167 49.5399 11.125 49.1065 11.125C48.5565 11.125 48.1149 11.275 47.7815 11.575C47.4649 11.8583 47.2899 12.3833 47.2565 13.15C47.2065 14.5167 47.2065 15.9167 47.2565 17.35C47.2899 18.1167 47.4649 18.65 47.7815 18.95C48.1149 19.2333 48.5565 19.375 49.1065 19.375C49.5399 19.375 49.9149 19.275 50.2315 19.075C50.5649 18.875 50.8149 18.525 50.9815 18.025C51.0649 17.7417 51.1732 17.55 51.3065 17.45C51.4399 17.35 51.6399 17.3 51.9065 17.3H57.0065C57.1565 17.3 57.2815 17.3583 57.3815 17.475C57.4982 17.575 57.5565 17.7 57.5565 17.85C57.5399 18.9833 57.2899 19.9583 56.8065 20.775C56.3399 21.575 55.7065 22.2333 54.9065 22.75C54.1065 23.2667 53.2065 23.65 52.2065 23.9C51.2232 24.1333 50.1982 24.25 49.1315 24.25ZM60.2165 24C60.0332 24 59.8748 23.9417 59.7415 23.825C59.6082 23.6917 59.5415 23.525 59.5415 23.325V7.175C59.5415 6.99167 59.6082 6.83333 59.7415 6.7C59.8748 6.56667 60.0332 6.5 60.2165 6.5H75.4165C75.5998 6.5 75.7582 6.56667 75.8915 6.7C76.0248 6.83333 76.0915 6.99167 76.0915 7.175V23.325C76.0915 23.5083 76.0248 23.6667 75.8915 23.8C75.7582 23.9333 75.5998 24 75.4165 24H70.5165C70.3332 24 70.1748 23.9333 70.0415 23.8C69.9082 23.6667 69.8415 23.5083 69.8415 23.325V12H65.7915V23.325C65.7915 23.5083 65.7248 23.6667 65.5915 23.8C65.4582 23.9333 65.2998 24 65.1165 24H60.2165ZM78.028 24C77.878 24 77.7447 23.95 77.628 23.85C77.528 23.7333 77.478 23.6 77.478 23.45C77.478 23.3833 77.4864 23.325 77.503 23.275L83.078 7.325C83.128 7.14167 83.2447 6.95833 83.428 6.775C83.6114 6.59167 83.8697 6.5 84.203 6.5H89.628C89.9614 6.5 90.2197 6.59167 90.403 6.775C90.5864 6.95833 90.703 7.14167 90.753 7.325L96.328 23.275C96.3447 23.325 96.353 23.3833 96.353 23.45C96.353 23.6 96.2947 23.7333 96.178 23.85C96.078 23.95 95.953 24 95.803 24H91.178C90.8614 24 90.628 23.9333 90.478 23.8C90.3447 23.65 90.253 23.5083 90.203 23.375L89.603 21.725H84.228L83.628 23.375C83.578 23.5083 83.4864 23.65 83.353 23.8C83.2197 23.9333 82.9864 24 82.653 24H78.028ZM85.503 16.85H88.328L86.903 12.2L85.503 16.85ZM98.4001 24C98.2168 24 98.0584 23.9333 97.9251 23.8C97.7918 23.6667 97.7251 23.5083 97.7251 23.325V7.175C97.7251 6.99167 97.7918 6.83333 97.9251 6.7C98.0584 6.56667 98.2168 6.5 98.4001 6.5H105.975C107.492 6.5 108.808 6.725 109.925 7.175C111.058 7.60833 111.933 8.28333 112.55 9.2C113.183 10.1 113.5 11.2417 113.5 12.625C113.5 14.0083 113.183 15.1417 112.55 16.025C111.933 16.8917 111.058 17.5333 109.925 17.95C108.808 18.35 107.492 18.55 105.975 18.55H104.225V23.325C104.225 23.5083 104.158 23.6667 104.025 23.8C103.892 23.9333 103.733 24 103.55 24H98.4001ZM104.1 13.925H105.85C106.117 13.925 106.375 13.825 106.625 13.625C106.875 13.4083 107 13.0583 107 12.575C107 12.2583 106.917 11.9417 106.75 11.625C106.6 11.3083 106.3 11.15 105.85 11.15H104.1V13.925ZM119.902 24C119.719 24 119.56 23.9333 119.427 23.8C119.294 23.6667 119.227 23.5083 119.227 23.325V11.875H115.077C114.894 11.875 114.735 11.8083 114.602 11.675C114.469 11.5417 114.402 11.3833 114.402 11.2V7.175C114.402 6.99167 114.469 6.83333 114.602 6.7C114.735 6.56667 114.894 6.5 115.077 6.5H129.727C129.91 6.5 130.069 6.56667 130.202 6.7C130.335 6.83333 130.402 6.99167 130.402 7.175V11.2C130.402 11.3833 130.335 11.5417 130.202 11.675C130.069 11.8083 129.91 11.875 129.727 11.875H125.577V23.325C125.577 23.5083 125.51 23.6667 125.377 23.8C125.244 23.9333 125.085 24 124.902 24H119.902ZM134.448 24C134.264 24 134.106 23.9333 133.973 23.8C133.839 23.6667 133.773 23.5083 133.773 23.325V19.325C133.773 19.1417 133.839 18.9833 133.973 18.85C134.106 18.7167 134.264 18.65 134.448 18.65H135.473C135.839 18.65 136.148 18.6083 136.398 18.525C136.664 18.425 136.889 18.2833 137.073 18.1C137.273 17.9 137.439 17.6417 137.573 17.325L142.048 7.1C142.131 6.9 142.239 6.75 142.373 6.65C142.523 6.55 142.698 6.5 142.898 6.5H147.823C147.989 6.5 148.123 6.55833 148.223 6.675C148.339 6.775 148.398 6.89167 148.398 7.025C148.398 7.10833 148.381 7.20833 148.348 7.325C148.314 7.425 148.281 7.51667 148.248 7.6L143.398 18.9C142.964 19.9 142.531 20.7333 142.098 21.4C141.681 22.05 141.206 22.5667 140.673 22.95C140.156 23.3333 139.523 23.6083 138.773 23.775C138.039 23.925 137.139 24 136.073 24H134.448ZM137.323 19.3L130.998 7.275C130.964 7.20833 130.948 7.15 130.948 7.1C130.948 6.95 131.014 6.81667 131.148 6.7C131.281 6.56667 131.431 6.5 131.598 6.5H136.823C137.039 6.5 137.206 6.55833 137.323 6.675C137.439 6.775 137.539 6.91667 137.623 7.1L140.473 13.275L137.323 19.3Z" fill="#63B2BF"/>
<path d="M10.07 48C9.88669 48 9.72835 47.9333 9.59502 47.8C9.46169 47.6667 9.39502 47.5083 9.39502 47.325V35.875H5.24502C5.06169 35.875 4.90335 35.8083 4.77002 35.675C4.63669 35.5417 4.57002 35.3833 4.57002 35.2V31.175C4.57002 30.9917 4.63669 30.8333 4.77002 30.7C4.90335 30.5667 5.06169 30.5 5.24502 30.5H19.895C20.0784 30.5 20.2367 30.5667 20.37 30.7C20.5034 30.8333 20.57 30.9917 20.57 31.175V35.2C20.57 35.3833 20.5034 35.5417 20.37 35.675C20.2367 35.8083 20.0784 35.875 19.895 35.875H15.745V47.325C15.745 47.5083 15.6784 47.6667 15.545 47.8C15.4117 47.9333 15.2534 48 15.07 48H10.07ZM23.0407 48C22.8574 48 22.6991 47.9333 22.5657 47.8C22.4324 47.6667 22.3657 47.5083 22.3657 47.325V31.175C22.3657 30.9917 22.4324 30.8333 22.5657 30.7C22.6991 30.5667 22.8574 30.5 23.0407 30.5H30.4407C32.8407 30.5 34.7157 31.0417 36.0657 32.125C37.4157 33.2083 38.0907 34.6917 38.0907 36.575C38.0907 37.6917 37.8324 38.6667 37.3157 39.5C36.8157 40.3167 36.1741 40.975 35.3907 41.475L38.4657 47.175C38.5157 47.275 38.5407 47.3667 38.5407 47.45C38.5407 47.6 38.4824 47.7333 38.3657 47.85C38.2657 47.95 38.1407 48 37.9907 48H32.8657C32.5324 48 32.2824 47.9167 32.1157 47.75C31.9491 47.5833 31.8407 47.4417 31.7907 47.325L29.6407 42.55H28.6157V47.325C28.6157 47.5083 28.5491 47.6667 28.4157 47.8C28.2824 47.9333 28.1241 48 27.9407 48H23.0407ZM28.6157 37.8H30.4407C30.8241 37.8 31.1074 37.675 31.2907 37.425C31.4907 37.1583 31.5907 36.8583 31.5907 36.525C31.5907 36.1917 31.4991 35.8833 31.3157 35.6C31.1491 35.3 30.8574 35.15 30.4407 35.15H28.6157V37.8ZM39.5827 48C39.4327 48 39.2994 47.95 39.1827 47.85C39.0827 47.7333 39.0327 47.6 39.0327 47.45C39.0327 47.3833 39.041 47.325 39.0577 47.275L44.6327 31.325C44.6827 31.1417 44.7994 30.9583 44.9827 30.775C45.166 30.5917 45.4244 30.5 45.7577 30.5H51.1827C51.516 30.5 51.7744 30.5917 51.9577 30.775C52.141 30.9583 52.2577 31.1417 52.3077 31.325L57.8827 47.275C57.8994 47.325 57.9077 47.3833 57.9077 47.45C57.9077 47.6 57.8494 47.7333 57.7327 47.85C57.6327 47.95 57.5077 48 57.3577 48H52.7327C52.416 48 52.1827 47.9333 52.0327 47.8C51.8994 47.65 51.8077 47.5083 51.7577 47.375L51.1577 45.725H45.7827L45.1827 47.375C45.1327 47.5083 45.041 47.65 44.9077 47.8C44.7744 47.9333 44.541 48 44.2077 48H39.5827ZM47.0577 40.85H49.8827L48.4577 36.2L47.0577 40.85ZM62.6161 48C62.2828 48 62.0244 47.9083 61.8411 47.725C61.6578 47.5417 61.5411 47.3583 61.4911 47.175L56.7911 31.225C56.7744 31.1583 56.7661 31.1 56.7661 31.05C56.7661 30.9 56.8161 30.775 56.9161 30.675C57.0328 30.5583 57.1661 30.5 57.3161 30.5H61.9661C62.2994 30.5 62.5578 30.5917 62.7411 30.775C62.9244 30.9583 63.0411 31.1417 63.0911 31.325L65.4661 40.625L67.8411 31.325C67.8911 31.1417 68.0078 30.9583 68.1911 30.775C68.3744 30.5917 68.6328 30.5 68.9661 30.5H73.6161C73.7661 30.5 73.8911 30.5583 73.9911 30.675C74.1078 30.775 74.1661 30.9 74.1661 31.05C74.1661 31.1 74.1578 31.1583 74.1411 31.225L69.4411 47.175C69.3911 47.3583 69.2744 47.5417 69.0911 47.725C68.9078 47.9083 68.6494 48 68.3161 48H62.6161ZM76.5808 48C76.3974 48 76.2391 47.9333 76.1058 47.8C75.9724 47.6667 75.9058 47.5083 75.9058 47.325V31.175C75.9058 30.9917 75.9724 30.8333 76.1058 30.7C76.2391 30.5667 76.3974 30.5 76.5808 30.5H89.4058C89.5891 30.5 89.7474 30.5667 89.8808 30.7C90.0141 30.8333 90.0808 30.9917 90.0808 31.175V34.7C90.0808 34.8833 90.0141 35.0417 89.8808 35.175C89.7474 35.3083 89.5891 35.375 89.4058 35.375H81.9058V36.95H88.8558C89.0391 36.95 89.1974 37.0167 89.3308 37.15C89.4641 37.2833 89.5308 37.4417 89.5308 37.625V40.875C89.5308 41.0583 89.4641 41.2167 89.3308 41.35C89.1974 41.4833 89.0391 41.55 88.8558 41.55H81.9058V43.125H89.6058C89.7891 43.125 89.9474 43.1917 90.0808 43.325C90.2141 43.4583 90.2808 43.6167 90.2808 43.8V47.325C90.2808 47.5083 90.2141 47.6667 90.0808 47.8C89.9474 47.9333 89.7891 48 89.6058 48H76.5808ZM93.2556 48C93.0722 48 92.9139 47.9333 92.7806 47.8C92.6472 47.6667 92.5806 47.5083 92.5806 47.325V31.175C92.5806 30.9917 92.6472 30.8333 92.7806 30.7C92.9139 30.5667 93.0722 30.5 93.2556 30.5H98.2556C98.4389 30.5 98.5972 30.5667 98.7306 30.7C98.8639 30.8333 98.9306 30.9917 98.9306 31.175V42.875H105.856C106.039 42.875 106.197 42.9417 106.331 43.075C106.464 43.2083 106.531 43.3667 106.531 43.55V47.325C106.531 47.5083 106.464 47.6667 106.331 47.8C106.197 47.9333 106.039 48 105.856 48H93.2556Z" fill="#793D0D"/>
</svg>
